<svg xmlns="http://www.w3.org/2000/svg" width="1200" height="630" viewBox="0 0 1200 630">
  <rect width="1200" height="630" fill="#06080c"/>
  <rect x="64" y="58" width="1072" height="514" rx="28" fill="#0a0f16" stroke="#213044" stroke-width="1"/>
  <g opacity="0.38" stroke="#182233" stroke-width="1">
    <path d="M96 150H1104"/>
    <path d="M96 486H1104"/>
    <path d="M840 90V540"/>
  </g>

  <g transform="translate(100 86)">
    <rect x="0" y="0" width="206" height="34" rx="7" fill="#0d171d" stroke="#24564f"/>
    <text x="16" y="22" font-family="Arial, Helvetica, sans-serif" font-size="13" font-weight="700" letter-spacing="1.4" fill="#8ddfd5">AGENTTOLL · MCP</text>
  </g>

  <text x="96" y="212" font-family="Arial, Helvetica, sans-serif" font-size="52" font-weight="800" letter-spacing="-1.4" fill="#edf5fb">Paid data tools</text>
  <text x="96" y="274" font-family="Arial, Helvetica, sans-serif" font-size="52" font-weight="800" letter-spacing="-1.4" fill="#edf5fb">for AI agents:</text>
  <text x="96" y="348" font-family="Arial, Helvetica, sans-serif" font-size="64" font-weight="800" letter-spacing="-1.8" fill="#8ddfd5">100+ x402 calls</text>

  <g transform="translate(96 406)">
    <rect x="0" y="0" width="742" height="58" rx="12" fill="#081015" stroke="#24564f"/>
    <text x="22" y="37" font-family="Arial, Helvetica, sans-serif" font-size="20" font-weight="700" fill="#edf5fb">MCP</text>
    <path d="M86 29H226" stroke="#7fd8ce" stroke-width="3" stroke-linecap="round"/>
    <text x="252" y="37" font-family="Arial, Helvetica, sans-serif" font-size="20" font-weight="700" fill="#edf5fb">USDC on Base</text>
    <path d="M404 29H544" stroke="#7fd8ce" stroke-width="3" stroke-linecap="round"/>
    <text x="570" y="37" font-family="Arial, Helvetica, sans-serif" font-size="20" font-weight="700" fill="#edf5fb">No keys</text>
  </g>

  <text x="100" y="518" font-family="Arial, Helvetica, sans-serif" font-size="20" fill="#d7e2ea">Prediction markets, SEC filings, OSINT, legal, academic, health, and more.</text>
  <text x="100" y="552" font-family="Arial, Helvetica, sans-serif" font-size="18" font-weight="700" fill="#8192a6">agenttoll.dev · By Hu White</text>
  <g transform="translate(878 222)">
    <rect x="0" y="0" width="162" height="162" rx="18" fill="#081015" stroke="#24564f"/>
    <path d="M32 82H130M82 32V130" stroke="#7fd8ce" stroke-width="5" stroke-linecap="round"/>
    <circle cx="82" cy="82" r="14" fill="#7fd8ce"/>
  </g>
</svg>
