<svg xmlns="http://www.w3.org/2000/svg" width="1200" height="630" viewBox="0 0 1200 630">
  <rect width="1200" height="630" fill="#06080c"/>
  <rect x="64" y="58" width="1072" height="514" rx="28" fill="#0a0f16" stroke="#213044" stroke-width="1"/>
  <g opacity="0.42" stroke="#182233" stroke-width="1">
    <path d="M96 154H1104"/>
    <path d="M96 476H1104"/>
    <path d="M200 90V540"/>
    <path d="M1000 90V540"/>
  </g>

  <g transform="translate(100 86)">
    <rect x="0" y="0" width="216" height="34" rx="7" fill="#0d171d" stroke="#24564f"/>
    <text x="16" y="22" font-family="Arial, Helvetica, sans-serif" font-size="13" font-weight="700" letter-spacing="1.4" fill="#8ddfd5">X402 PAYMENT RAIL</text>
  </g>

  <text x="96" y="224" font-family="Arial, Helvetica, sans-serif" font-size="68" font-weight="800" letter-spacing="-2" fill="#edf5fb">agent<tspan fill="#8ddfd5">toll</tspan>.dev</text>
  <text x="100" y="312" font-family="Arial, Helvetica, sans-serif" font-size="54" font-weight="800" letter-spacing="-1.4" fill="#edf5fb">Paid data tools</text>
  <text x="100" y="374" font-family="Arial, Helvetica, sans-serif" font-size="54" font-weight="800" letter-spacing="-1.4" fill="#edf5fb">for AI agents.</text>

  <g transform="translate(100 430)">
    <rect x="0" y="0" width="825" height="58" rx="12" fill="#081015" stroke="#24564f"/>
    <path d="M24 29H204M236 29H416M448 29H628M660 29H800" stroke="#7fd8ce" stroke-width="3" stroke-linecap="round"/>
    <circle cx="220" cy="29" r="7" fill="#7fd8ce"/>
    <circle cx="432" cy="29" r="7" fill="#7fd8ce"/>
    <circle cx="644" cy="29" r="7" fill="#7fd8ce"/>
  </g>

  <text x="100" y="532" font-family="Arial, Helvetica, sans-serif" font-size="22" font-weight="700" fill="#d7e2ea">100+ tools · 10 categories · $0.01-$0.10 per call · Base USDC</text>
  <text x="100" y="566" font-family="Arial, Helvetica, sans-serif" font-size="16" fill="#8192a6">Prediction markets · SEC filings · OSINT · Court records · Academic · Health · Environmental</text>
  <text x="904" y="112" font-family="Arial, Helvetica, sans-serif" font-size="14" font-weight="700" letter-spacing="1.2" fill="#56677b">NO ACCOUNTS · NO API KEYS</text>
</svg>
