<svg xmlns="http://www.w3.org/2000/svg" width="1200" height="700" viewBox="0 0 1200 700" role="img" aria-labelledby="t d">
<title id="t">Tokenized equities category at $2.8B versus $7.5M of Coinbase B20 circulating</title><desc id="d">A to-scale comparison: the whole tokenized equities category is about 2.8 billion dollars while Coinbase B20 tokens actually circulating are about 7.5 million.</desc>
<defs>
  <linearGradient id="bg" x1="0" y1="0" x2="1" y2="1"><stop stop-color="#071017"/><stop offset="0.58" stop-color="#06080c"/><stop offset="1" stop-color="#0a1019"/></linearGradient>
  <linearGradient id="tealg" x1="0" y1="0" x2="1" y2="0"><stop stop-color="#2dd4bf"/><stop offset="1" stop-color="#0ea5e9"/></linearGradient>
  <linearGradient id="tealfill" x1="0" y1="0" x2="0" y2="1"><stop stop-color="rgba(45,212,191,.16)"/><stop offset="1" stop-color="rgba(14,165,233,.05)"/></linearGradient>
  <linearGradient id="amberg" x1="0" y1="0" x2="1" y2="0"><stop stop-color="#f59e0b"/><stop offset="1" stop-color="#fbbf24"/></linearGradient>
  <radialGradient id="glow"><stop stop-color="#2dd4bf" stop-opacity=".22"/><stop offset="1" stop-color="#2dd4bf" stop-opacity="0"/></radialGradient>
  <radialGradient id="glowA"><stop stop-color="#f59e0b" stop-opacity=".20"/><stop offset="1" stop-color="#f59e0b" stop-opacity="0"/></radialGradient>
  <filter id="soft"><feGaussianBlur stdDeviation="14"/></filter>
  <style>
    text { font-family: Inter, Arial, sans-serif; fill: #e8eef6; }
    .mono { font-family: 'JetBrains Mono', 'Courier New', monospace; }
    .dim { fill: #8aa0b8; }
  </style>
</defs>
<rect width="1200" height="700" fill="url(#bg)"/>
<g opacity=".10"><circle cx="40" cy="40" r="1.1" fill="#2dd4bf"/><circle cx="96" cy="40" r="1.1" fill="#2dd4bf"/><circle cx="152" cy="40" r="1.1" fill="#2dd4bf"/><circle cx="208" cy="40" r="1.1" fill="#2dd4bf"/><circle cx="264" cy="40" r="1.1" fill="#2dd4bf"/><circle cx="320" cy="40" r="1.1" fill="#2dd4bf"/><circle cx="376" cy="40" r="1.1" fill="#2dd4bf"/><circle cx="432" cy="40" r="1.1" fill="#2dd4bf"/><circle cx="488" cy="40" r="1.1" fill="#2dd4bf"/><circle cx="544" cy="40" r="1.1" fill="#2dd4bf"/><circle cx="600" cy="40" r="1.1" fill="#2dd4bf"/><circle cx="656" cy="40" r="1.1" fill="#2dd4bf"/><circle cx="712" cy="40" r="1.1" fill="#2dd4bf"/><circle cx="768" cy="40" r="1.1" fill="#2dd4bf"/><circle cx="824" cy="40" r="1.1" fill="#2dd4bf"/><circle cx="880" cy="40" r="1.1" fill="#2dd4bf"/><circle cx="936" cy="40" r="1.1" fill="#2dd4bf"/><circle cx="992" cy="40" r="1.1" fill="#2dd4bf"/><circle cx="1048" cy="40" r="1.1" fill="#2dd4bf"/><circle cx="1104" cy="40" r="1.1" fill="#2dd4bf"/><circle cx="1160" cy="40" r="1.1" fill="#2dd4bf"/><circle cx="40" cy="96" r="1.1" fill="#2dd4bf"/><circle cx="96" cy="96" r="1.1" fill="#2dd4bf"/><circle cx="152" cy="96" r="1.1" fill="#2dd4bf"/><circle cx="208" cy="96" r="1.1" fill="#2dd4bf"/><circle cx="264" cy="96" r="1.1" fill="#2dd4bf"/><circle cx="320" cy="96" r="1.1" fill="#2dd4bf"/><circle cx="376" cy="96" r="1.1" fill="#2dd4bf"/><circle cx="432" cy="96" r="1.1" fill="#2dd4bf"/><circle cx="488" cy="96" r="1.1" fill="#2dd4bf"/><circle cx="544" cy="96" r="1.1" fill="#2dd4bf"/><circle cx="600" cy="96" r="1.1" fill="#2dd4bf"/><circle cx="656" cy="96" r="1.1" fill="#2dd4bf"/><circle cx="712" cy="96" r="1.1" fill="#2dd4bf"/><circle cx="768" cy="96" r="1.1" fill="#2dd4bf"/><circle cx="824" cy="96" r="1.1" fill="#2dd4bf"/><circle cx="880" cy="96" r="1.1" fill="#2dd4bf"/><circle cx="936" cy="96" r="1.1" fill="#2dd4bf"/><circle cx="992" cy="96" r="1.1" fill="#2dd4bf"/><circle cx="1048" cy="96" r="1.1" fill="#2dd4bf"/><circle cx="1104" cy="96" r="1.1" fill="#2dd4bf"/><circle cx="1160" cy="96" r="1.1" fill="#2dd4bf"/><circle cx="40" cy="152" r="1.1" fill="#2dd4bf"/><circle cx="96" cy="152" r="1.1" fill="#2dd4bf"/><circle cx="152" cy="152" r="1.1" fill="#2dd4bf"/><circle cx="208" cy="152" r="1.1" fill="#2dd4bf"/><circle cx="264" cy="152" r="1.1" fill="#2dd4bf"/><circle cx="320" cy="152" r="1.1" fill="#2dd4bf"/><circle cx="376" cy="152" r="1.1" fill="#2dd4bf"/><circle cx="432" cy="152" r="1.1" fill="#2dd4bf"/><circle cx="488" cy="152" r="1.1" fill="#2dd4bf"/><circle cx="544" cy="152" r="1.1" fill="#2dd4bf"/><circle cx="600" cy="152" r="1.1" fill="#2dd4bf"/><circle cx="656" cy="152" r="1.1" fill="#2dd4bf"/><circle cx="712" cy="152" r="1.1" fill="#2dd4bf"/><circle cx="768" cy="152" r="1.1" fill="#2dd4bf"/><circle cx="824" cy="152" r="1.1" fill="#2dd4bf"/><circle cx="880" cy="152" r="1.1" fill="#2dd4bf"/><circle cx="936" cy="152" r="1.1" fill="#2dd4bf"/><circle cx="992" cy="152" r="1.1" fill="#2dd4bf"/><circle cx="1048" cy="152" r="1.1" fill="#2dd4bf"/><circle cx="1104" cy="152" r="1.1" fill="#2dd4bf"/><circle cx="1160" cy="152" r="1.1" fill="#2dd4bf"/><circle cx="40" cy="208" r="1.1" fill="#2dd4bf"/><circle cx="96" cy="208" r="1.1" fill="#2dd4bf"/><circle cx="152" cy="208" r="1.1" fill="#2dd4bf"/><circle cx="208" cy="208" r="1.1" fill="#2dd4bf"/><circle cx="264" cy="208" r="1.1" fill="#2dd4bf"/><circle cx="320" cy="208" r="1.1" fill="#2dd4bf"/><circle cx="376" cy="208" r="1.1" fill="#2dd4bf"/><circle cx="432" cy="208" r="1.1" fill="#2dd4bf"/><circle cx="488" cy="208" r="1.1" fill="#2dd4bf"/><circle cx="544" cy="208" r="1.1" fill="#2dd4bf"/><circle cx="600" cy="208" r="1.1" fill="#2dd4bf"/><circle cx="656" cy="208" r="1.1" fill="#2dd4bf"/><circle cx="712" cy="208" r="1.1" fill="#2dd4bf"/><circle cx="768" cy="208" r="1.1" fill="#2dd4bf"/><circle cx="824" cy="208" r="1.1" fill="#2dd4bf"/><circle cx="880" cy="208" r="1.1" fill="#2dd4bf"/><circle cx="936" cy="208" r="1.1" fill="#2dd4bf"/><circle cx="992" cy="208" r="1.1" fill="#2dd4bf"/><circle cx="1048" cy="208" r="1.1" fill="#2dd4bf"/><circle cx="1104" cy="208" r="1.1" fill="#2dd4bf"/><circle cx="1160" cy="208" r="1.1" fill="#2dd4bf"/><circle cx="40" cy="264" r="1.1" fill="#2dd4bf"/><circle cx="96" cy="264" r="1.1" fill="#2dd4bf"/><circle cx="152" cy="264" r="1.1" fill="#2dd4bf"/><circle cx="208" cy="264" r="1.1" fill="#2dd4bf"/><circle cx="264" cy="264" r="1.1" fill="#2dd4bf"/><circle cx="320" cy="264" r="1.1" fill="#2dd4bf"/><circle cx="376" cy="264" r="1.1" fill="#2dd4bf"/><circle cx="432" cy="264" r="1.1" fill="#2dd4bf"/><circle cx="488" cy="264" r="1.1" fill="#2dd4bf"/><circle cx="544" cy="264" r="1.1" fill="#2dd4bf"/><circle cx="600" cy="264" r="1.1" fill="#2dd4bf"/><circle cx="656" cy="264" r="1.1" fill="#2dd4bf"/><circle cx="712" cy="264" r="1.1" fill="#2dd4bf"/><circle cx="768" cy="264" r="1.1" fill="#2dd4bf"/><circle cx="824" cy="264" r="1.1" fill="#2dd4bf"/><circle cx="880" cy="264" r="1.1" fill="#2dd4bf"/><circle cx="936" cy="264" r="1.1" fill="#2dd4bf"/><circle cx="992" cy="264" r="1.1" fill="#2dd4bf"/><circle cx="1048" cy="264" r="1.1" fill="#2dd4bf"/><circle cx="1104" cy="264" r="1.1" fill="#2dd4bf"/><circle cx="1160" cy="264" r="1.1" fill="#2dd4bf"/><circle cx="40" cy="320" r="1.1" fill="#2dd4bf"/><circle cx="96" cy="320" r="1.1" fill="#2dd4bf"/><circle cx="152" cy="320" r="1.1" fill="#2dd4bf"/><circle cx="208" cy="320" r="1.1" fill="#2dd4bf"/><circle cx="264" cy="320" r="1.1" fill="#2dd4bf"/><circle cx="320" cy="320" r="1.1" fill="#2dd4bf"/><circle cx="376" cy="320" r="1.1" fill="#2dd4bf"/><circle cx="432" cy="320" r="1.1" fill="#2dd4bf"/><circle cx="488" cy="320" r="1.1" fill="#2dd4bf"/><circle cx="544" cy="320" r="1.1" fill="#2dd4bf"/><circle cx="600" cy="320" r="1.1" fill="#2dd4bf"/><circle cx="656" cy="320" r="1.1" fill="#2dd4bf"/><circle cx="712" cy="320" r="1.1" fill="#2dd4bf"/><circle cx="768" cy="320" r="1.1" fill="#2dd4bf"/><circle cx="824" cy="320" r="1.1" fill="#2dd4bf"/><circle cx="880" cy="320" r="1.1" fill="#2dd4bf"/><circle cx="936" cy="320" r="1.1" fill="#2dd4bf"/><circle cx="992" cy="320" r="1.1" fill="#2dd4bf"/><circle cx="1048" cy="320" r="1.1" fill="#2dd4bf"/><circle cx="1104" cy="320" r="1.1" fill="#2dd4bf"/><circle cx="1160" cy="320" r="1.1" fill="#2dd4bf"/><circle cx="40" cy="376" r="1.1" fill="#2dd4bf"/><circle cx="96" cy="376" r="1.1" fill="#2dd4bf"/><circle cx="152" cy="376" r="1.1" fill="#2dd4bf"/><circle cx="208" cy="376" r="1.1" fill="#2dd4bf"/><circle cx="264" cy="376" r="1.1" fill="#2dd4bf"/><circle cx="320" cy="376" r="1.1" fill="#2dd4bf"/><circle cx="376" cy="376" r="1.1" fill="#2dd4bf"/><circle cx="432" cy="376" r="1.1" fill="#2dd4bf"/><circle cx="488" cy="376" r="1.1" fill="#2dd4bf"/><circle cx="544" cy="376" r="1.1" fill="#2dd4bf"/><circle cx="600" cy="376" r="1.1" fill="#2dd4bf"/><circle cx="656" cy="376" r="1.1" fill="#2dd4bf"/><circle cx="712" cy="376" r="1.1" fill="#2dd4bf"/><circle cx="768" cy="376" r="1.1" fill="#2dd4bf"/><circle cx="824" cy="376" r="1.1" fill="#2dd4bf"/><circle cx="880" cy="376" r="1.1" fill="#2dd4bf"/><circle cx="936" cy="376" r="1.1" fill="#2dd4bf"/><circle cx="992" cy="376" r="1.1" fill="#2dd4bf"/><circle cx="1048" cy="376" r="1.1" fill="#2dd4bf"/><circle cx="1104" cy="376" r="1.1" fill="#2dd4bf"/><circle cx="1160" cy="376" r="1.1" fill="#2dd4bf"/><circle cx="40" cy="432" r="1.1" fill="#2dd4bf"/><circle cx="96" cy="432" r="1.1" fill="#2dd4bf"/><circle cx="152" cy="432" r="1.1" fill="#2dd4bf"/><circle cx="208" cy="432" r="1.1" fill="#2dd4bf"/><circle cx="264" cy="432" r="1.1" fill="#2dd4bf"/><circle cx="320" cy="432" r="1.1" fill="#2dd4bf"/><circle cx="376" cy="432" r="1.1" fill="#2dd4bf"/><circle cx="432" cy="432" r="1.1" fill="#2dd4bf"/><circle cx="488" cy="432" r="1.1" fill="#2dd4bf"/><circle cx="544" cy="432" r="1.1" fill="#2dd4bf"/><circle cx="600" cy="432" r="1.1" fill="#2dd4bf"/><circle cx="656" cy="432" r="1.1" fill="#2dd4bf"/><circle cx="712" cy="432" r="1.1" fill="#2dd4bf"/><circle cx="768" cy="432" r="1.1" fill="#2dd4bf"/><circle cx="824" cy="432" r="1.1" fill="#2dd4bf"/><circle cx="880" cy="432" r="1.1" fill="#2dd4bf"/><circle cx="936" cy="432" r="1.1" fill="#2dd4bf"/><circle cx="992" cy="432" r="1.1" fill="#2dd4bf"/><circle cx="1048" cy="432" r="1.1" fill="#2dd4bf"/><circle cx="1104" cy="432" r="1.1" fill="#2dd4bf"/><circle cx="1160" cy="432" r="1.1" fill="#2dd4bf"/><circle cx="40" cy="488" r="1.1" fill="#2dd4bf"/><circle cx="96" cy="488" r="1.1" fill="#2dd4bf"/><circle cx="152" cy="488" r="1.1" fill="#2dd4bf"/><circle cx="208" cy="488" r="1.1" fill="#2dd4bf"/><circle cx="264" cy="488" r="1.1" fill="#2dd4bf"/><circle cx="320" cy="488" r="1.1" fill="#2dd4bf"/><circle cx="376" cy="488" r="1.1" fill="#2dd4bf"/><circle cx="432" cy="488" r="1.1" fill="#2dd4bf"/><circle cx="488" cy="488" r="1.1" fill="#2dd4bf"/><circle cx="544" cy="488" r="1.1" fill="#2dd4bf"/><circle cx="600" cy="488" r="1.1" fill="#2dd4bf"/><circle cx="656" cy="488" r="1.1" fill="#2dd4bf"/><circle cx="712" cy="488" r="1.1" fill="#2dd4bf"/><circle cx="768" cy="488" r="1.1" fill="#2dd4bf"/><circle cx="824" cy="488" r="1.1" fill="#2dd4bf"/><circle cx="880" cy="488" r="1.1" fill="#2dd4bf"/><circle cx="936" cy="488" r="1.1" fill="#2dd4bf"/><circle cx="992" cy="488" r="1.1" fill="#2dd4bf"/><circle cx="1048" cy="488" r="1.1" fill="#2dd4bf"/><circle cx="1104" cy="488" r="1.1" fill="#2dd4bf"/><circle cx="1160" cy="488" r="1.1" fill="#2dd4bf"/><circle cx="40" cy="544" r="1.1" fill="#2dd4bf"/><circle cx="96" cy="544" r="1.1" fill="#2dd4bf"/><circle cx="152" cy="544" r="1.1" fill="#2dd4bf"/><circle cx="208" cy="544" r="1.1" fill="#2dd4bf"/><circle cx="264" cy="544" r="1.1" fill="#2dd4bf"/><circle cx="320" cy="544" r="1.1" fill="#2dd4bf"/><circle cx="376" cy="544" r="1.1" fill="#2dd4bf"/><circle cx="432" cy="544" r="1.1" fill="#2dd4bf"/><circle cx="488" cy="544" r="1.1" fill="#2dd4bf"/><circle cx="544" cy="544" r="1.1" fill="#2dd4bf"/><circle cx="600" cy="544" r="1.1" fill="#2dd4bf"/><circle cx="656" cy="544" r="1.1" fill="#2dd4bf"/><circle cx="712" cy="544" r="1.1" fill="#2dd4bf"/><circle cx="768" cy="544" r="1.1" fill="#2dd4bf"/><circle cx="824" cy="544" r="1.1" fill="#2dd4bf"/><circle cx="880" cy="544" r="1.1" fill="#2dd4bf"/><circle cx="936" cy="544" r="1.1" fill="#2dd4bf"/><circle cx="992" cy="544" r="1.1" fill="#2dd4bf"/><circle cx="1048" cy="544" r="1.1" fill="#2dd4bf"/><circle cx="1104" cy="544" r="1.1" fill="#2dd4bf"/><circle cx="1160" cy="544" r="1.1" fill="#2dd4bf"/><circle cx="40" cy="600" r="1.1" fill="#2dd4bf"/><circle cx="96" cy="600" r="1.1" fill="#2dd4bf"/><circle cx="152" cy="600" r="1.1" fill="#2dd4bf"/><circle cx="208" cy="600" r="1.1" fill="#2dd4bf"/><circle cx="264" cy="600" r="1.1" fill="#2dd4bf"/><circle cx="320" cy="600" r="1.1" fill="#2dd4bf"/><circle cx="376" cy="600" r="1.1" fill="#2dd4bf"/><circle cx="432" cy="600" r="1.1" fill="#2dd4bf"/><circle cx="488" cy="600" r="1.1" fill="#2dd4bf"/><circle cx="544" cy="600" r="1.1" fill="#2dd4bf"/><circle cx="600" cy="600" r="1.1" fill="#2dd4bf"/><circle cx="656" cy="600" r="1.1" fill="#2dd4bf"/><circle cx="712" cy="600" r="1.1" fill="#2dd4bf"/><circle cx="768" cy="600" r="1.1" fill="#2dd4bf"/><circle cx="824" cy="600" r="1.1" fill="#2dd4bf"/><circle cx="880" cy="600" r="1.1" fill="#2dd4bf"/><circle cx="936" cy="600" r="1.1" fill="#2dd4bf"/><circle cx="992" cy="600" r="1.1" fill="#2dd4bf"/><circle cx="1048" cy="600" r="1.1" fill="#2dd4bf"/><circle cx="1104" cy="600" r="1.1" fill="#2dd4bf"/><circle cx="1160" cy="600" r="1.1" fill="#2dd4bf"/><circle cx="40" cy="656" r="1.1" fill="#2dd4bf"/><circle cx="96" cy="656" r="1.1" fill="#2dd4bf"/><circle cx="152" cy="656" r="1.1" fill="#2dd4bf"/><circle cx="208" cy="656" r="1.1" fill="#2dd4bf"/><circle cx="264" cy="656" r="1.1" fill="#2dd4bf"/><circle cx="320" cy="656" r="1.1" fill="#2dd4bf"/><circle cx="376" cy="656" r="1.1" fill="#2dd4bf"/><circle cx="432" cy="656" r="1.1" fill="#2dd4bf"/><circle cx="488" cy="656" r="1.1" fill="#2dd4bf"/><circle cx="544" cy="656" r="1.1" fill="#2dd4bf"/><circle cx="600" cy="656" r="1.1" fill="#2dd4bf"/><circle cx="656" cy="656" r="1.1" fill="#2dd4bf"/><circle cx="712" cy="656" r="1.1" fill="#2dd4bf"/><circle cx="768" cy="656" r="1.1" fill="#2dd4bf"/><circle cx="824" cy="656" r="1.1" fill="#2dd4bf"/><circle cx="880" cy="656" r="1.1" fill="#2dd4bf"/><circle cx="936" cy="656" r="1.1" fill="#2dd4bf"/><circle cx="992" cy="656" r="1.1" fill="#2dd4bf"/><circle cx="1048" cy="656" r="1.1" fill="#2dd4bf"/><circle cx="1104" cy="656" r="1.1" fill="#2dd4bf"/><circle cx="1160" cy="656" r="1.1" fill="#2dd4bf"/></g>
<text x="80" y="86" class="mono" font-size="15" letter-spacing="3" fill="#8aa0b8">HONEST SCALE · AUG 2026</text>
<text x="80" y="128" font-size="26" font-weight="700">Everyone covered the launch. Almost none of it is circulating.</text>

<text x="80" y="272" class="mono" font-size="15" fill="#8aa0b8">TOKENIZED EQUITIES CATEGORY</text>
<text x="1120" y="272" text-anchor="end" class="mono" font-size="20" fill="#e8eef6">~$2.8B</text>
<rect x="80" y="300" width="1040" height="64" rx="12" fill="url(#tealg)" opacity=".28"/>
<rect x="80" y="300" width="1040" height="6" rx="3" fill="url(#tealg)"/>

<!-- ticks on the big bar -->
<line x1="451" y1="286" x2="451" y2="378" stroke="#8aa0b8" stroke-width="1.5" stroke-dasharray="3 4"/>
<text x="451" y="402" text-anchor="middle" class="mono" font-size="14" fill="#8aa0b8">Ondo ≈ $1B</text>
<line x1="306" y1="286" x2="306" y2="378" stroke="#8aa0b8" stroke-width="1.5" stroke-dasharray="3 4"/>
<text x="306" y="402" text-anchor="middle" class="mono" font-size="14" fill="#8aa0b8">xStocks mcap $609M</text>

<!-- the sliver, at true scale -->
<rect x="80" y="300" width="3" height="64" fill="#f59e0b"/>
<circle cx="82" cy="332.0" r="90" fill="url(#glowA)"/>

<!-- magnifier callout -->
<line x1="83" y1="326.0" x2="235" y2="500" stroke="#f59e0b" stroke-opacity=".5" stroke-width="1.2"/>
<circle cx="235" cy="500" r="118" fill="#0a1019" fill-opacity=".92" stroke="#f59e0b" stroke-width="2"/>
<text x="235" y="580" text-anchor="middle" class="mono" font-size="14" fill="#8aa0b8">magnified ~300×</text>
<rect x="160" y="462" width="150" height="26" fill="url(#amberg)"/>
<text x="235" y="448" text-anchor="middle" class="mono" font-size="16" fill="#f59e0b">Coinbase B20 ≈ $7.5M</text>
<text x="235" y="628" text-anchor="middle" class="mono" font-size="14" fill="#8aa0b8">0.27% of the category (Galaxy, Aug 28)</text>

<text x="80" y="672" class="mono" font-size="13" fill="#8aa0b8">Bar widths to scale. 1px ≈ $2.7M. Sources: Galaxy Research; Genfinity; category estimates mid-Aug 2026.</text>

</svg>